<?xml version="1.0" encoding="iso-8859-1"?>
<!-- Generator: Adobe Illustrator 19.0.0, SVG Export Plug-In . SVG Version: 6.00 Build 0)  -->
<svg version="1.1" id="Layer_1" xmlns="http://www.w3.org/2000/svg" xmlns:xlink="http://www.w3.org/1999/xlink" x="0px" y="0px"
	 viewBox="0 0 512 512" style="enable-background:new 0 0 512 512;" xml:space="preserve">
<g>
	<path style="fill:#F4AD47;" d="M349.36,261.158c-20.036,0-38.873-7.803-53.039-21.971l-23.507-23.506
		c-29.246-29.247-29.246-76.833-0.001-106.079l77.576-77.576c14.167-14.167,33.003-21.97,53.039-21.97s38.872,7.803,53.039,21.97
		l23.507,23.507c14.167,14.167,21.97,33.003,21.97,53.039s-7.803,38.872-21.97,53.039l-77.575,77.575
		C388.232,253.356,369.395,261.158,349.36,261.158z M403.427,60.34c-6.605,0-12.813,2.572-17.484,7.242l-77.575,77.575
		c-9.64,9.64-9.64,25.327,0,34.969l23.507,23.506c4.671,4.671,10.88,7.243,17.484,7.243s12.813-2.572,17.484-7.242l77.573-77.575
		c4.671-4.67,7.243-10.88,7.243-17.485s-2.572-12.813-7.243-17.485l-23.507-23.507C416.241,62.912,410.032,60.34,403.427,60.34z"/>
	<path style="fill:#F4AD47;" d="M108.573,501.944c-20.035,0-38.872-7.803-53.038-21.968l-23.508-23.51
		c-14.167-14.167-21.97-33.003-21.97-53.038c0-20.035,7.803-38.872,21.971-53.039l77.575-77.575
		c14.167-14.167,33.003-21.97,53.039-21.97c20.035,0,38.872,7.803,53.038,21.968l23.508,23.508
		c29.246,29.246,29.246,76.833,0,106.079l-77.577,77.575C147.445,494.142,128.609,501.944,108.573,501.944z M162.642,301.127
		c-6.606,0-12.813,2.572-17.483,7.242l-77.576,77.576c-4.671,4.67-7.243,10.879-7.243,17.483c0,6.603,2.572,12.813,7.242,17.483
		l23.508,23.508c4.67,4.67,10.879,7.242,17.483,7.242s12.813-2.572,17.485-7.242l77.576-77.575c9.64-9.64,9.64-25.327-0.001-34.968
		l-23.507-23.508C175.455,303.699,169.246,301.127,162.642,301.127z"/>
</g>
<path style="fill:#E8594F;" d="M180.776,356.366c-6.434,0-12.869-2.455-17.779-7.364c-9.818-9.819-9.818-25.737,0-35.555
	L310.76,165.684c9.819-9.819,25.738-9.819,35.556,0c9.818,9.819,9.818,25.737,0,35.555L198.553,349.003
	C193.645,353.912,187.21,356.366,180.776,356.366z"/>
<g>
	<path style="fill:#231F20;" d="M322.614,400.18l-85.48,85.48c-3.927,3.927-3.927,10.294,0,14.221
		c1.965,1.964,4.537,2.945,7.111,2.945s5.148-0.982,7.111-2.945l85.48-85.48c3.927-3.927,3.927-10.294,0-14.221
		C332.908,396.251,326.543,396.251,322.614,400.18z"/>
	<path style="fill:#231F20;" d="M158.765,125.707c2.574,0,5.148-0.982,7.111-2.945l76.681-76.681c3.927-3.927,3.927-10.294,0-14.221
		c-3.928-3.927-10.294-3.927-14.222,0l-76.681,76.681c-3.927,3.927-3.927,10.294,0,14.221
		C153.617,124.725,156.19,125.707,158.765,125.707z"/>
	<path style="fill:#231F20;" d="M487.086,48.424l-23.507-23.507c-16.068-16.068-37.43-24.916-60.152-24.916
		s-44.084,8.848-60.152,24.915l-77.576,77.576c-28.651,28.654-32.525,72.821-11.669,105.699l-45.815,45.815
		c-13.501-8.601-29.18-13.219-45.575-13.219c-22.723,0-44.085,8.848-60.152,24.915l-77.573,77.576
		C8.848,359.344,0,380.706,0,403.428s8.848,44.083,24.914,60.149l23.508,23.508c16.067,16.067,37.428,24.914,60.151,24.914
		s44.084-8.848,60.151-24.915L246.3,409.51c28.654-28.655,32.528-72.823,11.669-105.702l45.815-45.815
		c13.501,8.602,29.18,13.221,45.575,13.221c22.721,0,44.084-8.848,60.152-24.915l77.575-77.575
		C503.152,152.657,512,131.295,512,108.573S503.152,64.491,487.086,48.424z M353.428,158.574
		c-6.649-6.649-15.487-10.309-24.89-10.309c-3.693,0-7.296,0.573-10.718,1.662l75.232-75.233c2.772-2.772,6.456-4.297,10.375-4.297
		s7.601,1.526,10.372,4.297l23.508,23.508c2.771,2.771,4.297,6.454,4.297,10.372s-1.526,7.601-4.298,10.373l-75.269,75.272
		C365.918,182.063,363.055,168.201,353.428,158.574z M317.871,172.796c2.85-2.85,6.636-4.419,10.666-4.419s7.818,1.569,10.666,4.419
		c5.882,5.882,5.882,15.452,0,21.334L191.442,341.892c-2.85,2.85-6.637,4.419-10.666,4.419c-4.029,0-7.818-1.569-10.666-4.417
		c-5.882-5.882-5.882-15.452,0-21.334L317.871,172.796z M155.886,356.113c6.649,6.649,15.487,10.309,24.89,10.309
		c3.693,0,7.297-0.573,10.719-1.663l-72.548,72.546c-2.772,2.772-6.456,4.297-10.375,4.297s-7.603-1.526-10.372-4.295
		l-23.508-23.508c-2.771-2.771-4.297-6.454-4.297-10.372s1.526-7.601,4.298-10.373l72.582-72.582
		C143.397,332.628,146.261,346.487,155.886,356.113z M232.077,395.288L154.5,472.863c-12.266,12.268-28.577,19.023-45.927,19.023
		s-33.66-6.757-45.927-19.023l-23.508-23.508c-12.268-12.268-19.024-28.578-19.024-45.927s6.757-33.66,19.026-45.929l77.575-77.575
		c12.266-12.268,28.577-19.023,45.928-19.023c10.965,0,21.507,2.713,30.881,7.8l-23.227,23.227
		c-2.485-0.556-5.046-0.856-7.656-0.856c-9.291,0-18.025,3.618-24.594,10.187l-77.575,77.575
		c-6.569,6.568-10.189,15.303-10.189,24.594c0,9.291,3.618,18.025,10.187,24.593l23.508,23.508
		c6.571,6.569,15.305,10.187,24.594,10.187s18.025-3.618,24.596-10.187l77.576-77.575c6.562-6.562,10.176-15.297,10.176-24.594
		c0-2.607-0.299-5.165-0.854-7.648l23.204-23.204C256.548,343.113,252.836,374.529,232.077,395.288z M472.863,154.501
		l-77.575,77.575c-12.268,12.268-28.578,19.024-45.928,19.024c-10.965,0-21.507-2.713-30.882-7.8l23.226-23.226
		c2.486,0.557,5.047,0.857,7.657,0.857c9.291,0,18.025-3.618,24.596-10.187l77.572-77.575c6.571-6.569,10.189-15.305,10.189-24.596
		s-3.619-18.026-10.187-24.594l-23.507-23.507c-6.568-6.571-15.304-10.19-24.594-10.19s-18.025,3.618-24.596,10.187l-77.575,77.575
		c-8.732,8.732-11.824,20.985-9.31,32.23l-23.218,23.218c-13.276-24.606-9.564-56.021,11.194-76.78l77.576-77.576
		c12.266-12.266,28.578-19.023,45.928-19.023s33.66,6.757,45.928,19.024l23.507,23.507c12.268,12.268,19.024,28.579,19.024,45.928
		S485.13,142.234,472.863,154.501z"/>
</g>
<g>
</g>
<g>
</g>
<g>
</g>
<g>
</g>
<g>
</g>
<g>
</g>
<g>
</g>
<g>
</g>
<g>
</g>
<g>
</g>
<g>
</g>
<g>
</g>
<g>
</g>
<g>
</g>
<g>
</g>
</svg>
