<?xml version="1.0" encoding="iso-8859-1"?>
<!-- Generator: Adobe Illustrator 19.0.0, SVG Export Plug-In . SVG Version: 6.00 Build 0)  -->
<svg version="1.1" id="Layer_1" xmlns="http://www.w3.org/2000/svg" xmlns:xlink="http://www.w3.org/1999/xlink" x="0px" y="0px"
	 viewBox="0 0 460 460" style="enable-background:new 0 0 460 460;" xml:space="preserve">
<g>
	<g id="XMLID_59_">
		<g>
			<path style="fill:#FFD248;" d="M230,100c69.004,0,125,55.996,125,125s-55.996,125-125,125s-125-55.996-125-125
				S160.996,100,230,100z"/>
			<path style="fill:#AFB6BB;" d="M450,185v90h-40.703c-4.492,17.803-11.494,34.6-20.693,49.902l28.799,28.799l-63.604,63.701
				l-28.896-28.799c-15.303,9.199-32.1,16.201-49.902,20.693V450h-90v-40.703c-17.793-4.492-34.6-11.494-49.902-20.693
				L106.3,417.403l-63.701-63.701l28.809-28.799C62.207,309.6,55.195,292.803,50.703,275H10v-90h40.703
				c4.492-17.793,11.504-34.6,20.703-49.902l-28.809-28.896l63.701-63.604l28.799,28.809c15.303-9.2,32.11-16.212,49.903-20.704V10
				h90v40.703c17.803,4.492,34.6,11.504,49.902,20.703l28.799-28.809l63.701,63.604l-28.799,28.896
				c9.199,15.303,16.201,32.109,20.693,49.902H450V185z M355,225c0-69.004-55.996-125-125-125s-125,55.996-125,125
				s55.996,125,125,125S355,294.004,355,225z"/>
			<path style="fill:#FDC447;" d="M230,135c49.688,0,90,40.322,90,90c0,49.688-40.313,90-90,90c-49.678,0-90-40.313-90-90
				C140,175.322,180.322,135,230,135z"/>
		</g>
		<g>
			<path style="fill:#231F20;" d="M450,175h-33.073c-3.938-13.355-9.247-26.169-15.851-38.251l23.409-23.489
				c3.896-3.909,3.889-10.235-0.018-14.135l-63.701-63.604c-3.907-3.901-10.234-3.899-14.138,0.007l-23.391,23.397
				c-12.092-6.609-24.901-11.92-38.238-15.854V10c0-5.523-4.478-10-10-10h-90c-5.523,0-10,4.477-10,10v33.073
				c-13.341,3.935-26.15,9.246-38.238,15.854L113.37,35.529c-3.903-3.904-10.232-3.907-14.138-0.007l-63.7,63.603
				c-3.906,3.899-3.913,10.228-0.017,14.137l23.417,23.488c-6.61,12.092-11.923,24.904-15.859,38.25H10c-5.523,0-10,4.477-10,10v90
				c0,5.522,4.477,10,10,10h33.072c3.934,13.337,9.244,26.147,15.854,38.238l-23.397,23.391c-1.876,1.875-2.931,4.419-2.931,7.071
				s1.054,5.196,2.929,7.072l63.701,63.701c3.906,3.904,10.236,3.904,14.143,0l23.391-23.392
				c12.079,6.601,24.889,11.909,38.239,15.845V450c0,5.522,4.477,10,10,10h90c5.522,0,10-4.478,10-10v-33.072
				c13.352-3.936,26.165-9.245,38.251-15.852l23.489,23.409c3.908,3.895,10.236,3.888,14.135-0.018l63.603-63.701
				c3.9-3.906,3.899-10.233-0.005-14.137l-23.391-23.391c6.602-12.082,11.91-24.892,15.845-38.239H450c5.522,0,10-4.478,10-10v-90
				C460,179.477,455.522,175,450,175z M440,265h-30.703c-4.58,0-8.575,3.112-9.696,7.554c-4.226,16.748-10.81,32.628-19.567,47.196
				c-2.366,3.935-1.748,8.977,1.499,12.224l21.733,21.733l-49.484,49.56l-21.82-21.746c-3.248-3.236-8.281-3.85-12.211-1.487
				c-14.568,8.758-30.448,15.342-47.196,19.567c-4.441,1.121-7.554,5.116-7.554,9.696V440h-70v-30.703
				c0-4.58-3.111-8.574-7.552-9.695c-16.757-4.23-32.636-10.814-47.198-19.568c-3.936-2.365-8.977-1.748-12.224,1.499
				l-21.728,21.728l-49.558-49.558l21.735-21.727c3.247-3.247,3.866-8.288,1.5-12.225c-8.769-14.587-15.355-30.467-19.577-47.196
				c-1.121-4.441-5.116-7.554-9.696-7.554H20v-70h30.703c4.58,0,8.574-3.111,9.695-7.552c4.227-16.738,10.813-32.617,19.578-47.198
				c2.363-3.931,1.749-8.965-1.488-12.213l-21.754-21.819l49.558-49.482l21.733,21.741c3.249,3.249,8.29,3.865,12.225,1.5
				c14.581-8.765,30.46-15.352,47.198-19.578c4.441-1.121,7.552-5.115,7.552-9.695V20h70v30.703c0,4.58,3.112,8.575,7.554,9.696
				c16.729,4.222,32.609,10.809,47.196,19.577c3.934,2.364,8.978,1.746,12.225-1.5l21.733-21.741l49.559,49.483l-21.746,21.82
				c-3.237,3.247-3.851,8.281-1.487,12.211c8.754,14.563,15.338,30.441,19.568,47.198c1.121,4.441,5.115,7.552,9.695,7.552H440V265z
				"/>
			<path style="fill:#231F20;" d="M230,90c-74.439,0-135,60.561-135,135s60.561,135,135,135s135-60.56,135-135S304.44,90,230,90z
				 M230,340c-63.411,0-115-51.589-115-115s51.589-115,115-115s115,51.589,115,115S293.411,340,230,340z"/>
			<path style="fill:#231F20;" d="M245,175h-5v-15h-20v15h-5c-11.028,0-20,8.972-20,20v20c0,11.028,8.972,20,20,20h15h15v20h-30v-10
				h-20v10c0,11.028,8.972,20,20,20h5v15h20v-15h5c11.028,0,20-8.972,20-20v-20c0-11.028-8.972-20-20-20h-15h-15v-20h30v10h20v-10
				C265,183.972,256.028,175,245,175z"/>
			<rect x="295" y="215" style="fill:#231F20;" width="20" height="20"/>
			<rect x="145" y="215" style="fill:#231F20;" width="20" height="20"/>
		</g>
	</g>
</g>
<g>
</g>
<g>
</g>
<g>
</g>
<g>
</g>
<g>
</g>
<g>
</g>
<g>
</g>
<g>
</g>
<g>
</g>
<g>
</g>
<g>
</g>
<g>
</g>
<g>
</g>
<g>
</g>
<g>
</g>
</svg>
