<?xml version="1.0" ?><!DOCTYPE svg  PUBLIC '-//W3C//DTD SVG 1.1//EN'
        'http://www.w3.org/Graphics/SVG/1.1/DTD/svg11.dtd'>
<svg style="enable-background:new 0 0 500 395.448;" version="1.1" viewBox="0 0 500 395.448" xml:space="preserve" xmlns="http://www.w3.org/2000/svg" xmlns:xlink="http://www.w3.org/1999/xlink"><g id="cloud-network-sign"><g id="cloud-network-sign_1_"><path d="M404.169,119.452c-4.312,0-8.517,0.365-12.668,0.944C387.832,53.29,332.279,0,264.283,0    c-55.521,0-97.795,40.396-115.28,89.932c-9.321-2.424-24.027-8.646-34.121-8.646C51.434,81.286,0,132.709,0,196.19    c0,63.459,51.434,114.882,114.882,114.882c3.133,0,6.672,0,10.426,0c-13.086,23.706-7.755,54.17,14.031,71.761    c10.071,8.131,22.772,12.615,35.698,12.615c17.323,0,33.456-7.723,44.29-21.174c12.281-15.21,15.575-34.819,10.222-52.324    c6.169,1.609,12.583,2.424,19.094,2.424c12.368,0,24.468-3.025,35.227-8.667c0.064,14.331,6.371,28.383,18.117,37.865    c8.666,6.994,19.608,10.877,30.764,10.877c0.01,0,0.01,0,0.01,0c14.9,0,28.812-6.651,38.165-18.257    c8.046-9.954,11.746-22.397,10.63-35.119c9.676,0,17.453,0,22.612,0c52.925,0,95.831-42.885,95.831-95.81    C500,162.359,457.094,119.452,404.169,119.452z M356.789,334.778c-10.716,13.258-30.13,15.339-43.389,4.634    c-8.774-7.08-12.506-17.935-10.994-28.34c0.579-4.011,1.877-7.959,4.076-11.585l-15.05-12.227    c-19.715,21.753-52.656,25.228-76.513,8.088l-12.69,15.661c0.022,0.021,0.054,0.064,0.076,0.064    c13.944,13.816,15.468,36.192,2.875,51.788c-13.408,16.669-37.78,19.244-54.427,5.814c-16.626-13.408-19.243-37.779-5.814-54.406    c0.955-1.201,2.06-2.145,3.111-3.196c13.098-12.872,33.532-14.888,48.818-4.462l12.668-15.661    c-21.55-19.78-24.907-52.667-7.691-76.416l-15.361-12.487c-9.492,8.217-23.781,8.753-33.896,0.601    c-11.36-9.182-13.14-25.829-3.958-37.221c9.182-11.371,25.829-13.151,37.221-3.97c10.77,8.71,12.807,24.092,5.17,35.334    l15.2,12.357c19.726-21.367,52.346-24.714,76.009-7.788l12.143-14.973c-11.916-11.8-13.343-30.85-2.585-44.194    c11.477-14.201,32.287-16.433,46.521-4.977c14.213,11.499,16.433,32.309,4.967,46.532c-10.716,13.259-29.456,15.94-43.465,6.973    l-12.185,14.995c21.581,19.672,25.079,52.368,8.173,76.159l14.953,12.143c10.984-11.328,28.898-12.744,41.406-2.638    c6.328,5.105,10.028,12.227,11.091,19.693C364.394,319.246,362.366,327.849,356.789,334.778z" style="fill:white;"/></g></g><g id="Layer_1"/></svg>