<?xml version="1.0" ?>
<svg enable-background="new 0 0 64 64" height="64px" version="1.1" viewBox="0 0 64 64" width="64px" xml:space="preserve" xmlns="http://www.w3.org/2000/svg" xmlns:xlink="http://www.w3.org/1999/xlink"><g id="Layer_1"><g><circle cx="32" cy="32" fill="#8d9296" r="32"/></g><g><g><g opacity="0.2"><path d="M36,23v-9H19c-1.657,0-3,1.343-3,3v34c0,1.657,1.343,3,3,3h26c1.657,0,3-1.343,3-3V26h-9      C37.343,26,36,24.657,36,23z" fill="#231F20"/></g><g><path d="M36,21v-9H19c-1.657,0-3,1.343-3,3v34c0,1.657,1.343,3,3,3h26c1.657,0,3-1.343,3-3V24h-9      C37.343,24,36,22.657,36,21z" fill="#E0E0D1"/></g><g opacity="0.2"><polygon fill="#231F20" points="37.016,23.294 48,33 48,24     "/></g><g><path d="M36,12v9c0,1.657,1.343,3,3,3h9L36,12z" fill="#FFFFFF"/></g></g><g opacity="0.2"><rect fill="#231F20" height="2" width="9.625" x="22" y="22"/></g><g opacity="0.2"><rect fill="#231F20" height="2" width="20" x="22" y="32"/></g><g opacity="0.2"><rect fill="#231F20" height="2" width="20" x="22" y="27"/></g><g opacity="0.2"><rect fill="#231F20" height="2" width="20" x="22" y="37"/></g><g opacity="0.2"><rect fill="#231F20" height="2" width="20" x="22" y="42"/></g></g></g><g id="Layer_2"/></svg>